<?xml version="1.0" encoding="utf-8"?>
<!-- Svg Vector Icons : http://www.onlinewebfonts.com/icon -->
<svg version="1.1" xmlns="http://www.w3.org/2000/svg" x="0px" y="0px" viewBox="0 0 1000 1000" fill="white">
<g><path d="M202.3,922.8c-6.4-8.4-15-18.4-26.1-29.5l-69.5-69.5c-11-11.1-21.1-19.7-29.5-26.1c-7.1,16.4-16,38.9-24.9,65.5L10.1,989.5c0,0.1-0.1,0.3-0.1,0.5c0.2-0.1,0.3-0.1,0.5-0.2l126.3-42.1C163.4,938.8,185.8,930,202.3,922.8z"/><path d="M836.2,24.5l-34.8,34.8l-52.3,52.3l52.3,52.3l34.8,34.8l52.3,52.3l52.3-52.3l34.8-34.8c19.3-19.3,19.3-50.6,0-69.8L906,24.5C886.8,5.2,855.4,5.2,836.2,24.5z"/><path d="M801.6,233.2l-34.8-34.8c-19.4-19.4-38-38.1-52.3-52.3L175.8,684.8l-72,72c11.8,8.8,24.6,19.7,37.4,32.5l69.5,69.5c12.8,12.8,23.7,25.6,32.5,37.4l72-72l538.7-538.7C839.6,271.2,821,252.6,801.6,233.2z"/></g>
</svg>