<?xml version="1.0" encoding="utf-8"?>
<!-- Svg Vector Icons : http://www.onlinewebfonts.com/icon -->
<svg xmlns="http://www.w3.org/2000/svg" x="0px" y="0px" viewBox="0 0 1000 1000" fill="white">
<g transform="translate(0.000000,511.000000) scale(0.100000,-0.100000)"><path d="M1650.4,4852.3c8.8-87.6,52.6-825.6,100.7-1638.1s118.3-1966.6,153.3-2562.3c35-595.7,100.7-1664.4,142.4-2376.2c43.8-709.6,81-1292.1,83.2-1294.3c2.2-4.4,444.6,490.6,978.9,1097.2c536.6,606.6,981.1,1103.8,989.9,1103.8c8.8,2.2,70.1-89.8,133.6-199.3c111.7-190.5,2130.9-3688,2174.7-3764.6c17.5-32.9,116.1,19.7,692.1,350.4l672.3,389.8L6615.1-2039.7C5664.7-395,5465.4-35.8,5493.8-20.5c19.7,8.8,665.8,144.5,1436.7,300C7701.4,437.2,8343.1,568.6,8354,573c13.1,4.4-223.4,168.6-525.6,367.9C7528.4,1138,6017.3,2136.7,4471.1,3155c-1544,1020.6-2814.2,1855-2820.8,1855C1643.8,5010,1643.8,4937.7,1650.4,4852.3z"/></g>
</svg>